PathFileType	4	(X/Y/Z)	F:\MotionCapture\20160217\3\Generated_files\2_Test04-Dynamic.trc
DataRate	CameraRate	NumFrames	NumMarkers	Units	OrigDataRate	OrigDataStartFrame	OrigNumFrames
120.00	120.00	       4	39	mm	120.00	319	       849
Frame#	Time	Top.Head			Front.Head			Rear.Head			R.Shoulder			R.Offset			R.Elbow			R.Wrist			L.Shoulder			L.Elbow			L.Wrist			R.ASIS			L.ASIS			V.Sacral			R.Thigh			R.Knee			R.Shank			R.Ankle			R.Heel			R.Toe			L.Thigh			L.Knee			L.Shank			L.Ankle			L.Heel			L.Toe			R1			R2			R3			R4			R5			R6			R7			L1			L2			L3			L4			L5			L6			L7			V_Mid_ASIS			V_Pelvis_Origin			V_R.Hip_JC			V_L.Hip_JC			V_R.Knee_JC			V_L.Knee_JC			V_R.Ankle_JC			V_L.Ankle_JC			V_Mid_Hip			V_Mid_Shoulder			V_R.Hand			V_L.Hand			V_R.Toe_Offset_Static			V_L.Toe_Offset_Static			V_R.Toe_Offset			V_L.Toe_Offset			
		X1	Y1	Z1	X2	Y2	Z2	X3	Y3	Z3	X4	Y4	Z4	X5	Y5	Z5	X6	Y6	Z6	X7	Y7	Z7	X8	Y8	Z8	X9	Y9	Z9	X10	Y10	Z10	X11	Y11	Z11	X12	Y12	Z12	X13	Y13	Z13	X14	Y14	Z14	X15	Y15	Z15	X16	Y16	Z16	X17	Y17	Z17	X18	Y18	Z18	X19	Y19	Z19	X20	Y20	Z20	X21	Y21	Z21	X22	Y22	Z22	X23	Y23	Z23	X24	Y24	Z24	X25	Y25	Z25	X26	Y26	Z26	X27	Y27	Z27	X28	Y28	Z28	X29	Y29	Z29	X30	Y30	Z30	X31	Y31	Z31	X32	Y32	Z32	X33	Y33	Z33	X34	Y34	Z34	X35	Y35	Z35	X36	Y36	Z36	X37	Y37	Z37	X38	Y38	Z38	X39	Y39	Z39	

319	2.650	1904.62537	183.87207	1724.69214	1783.34192	181.32483	1654.86121	2004.15967	177.29454	1643.48047	1941.18005	370.97583	1409.65149	2062.60522	90.18764	1280.28967	2051.85864	456.63403	1104.42908	2026.48755	469.44711	841.75751	1896.00354	-35.24928	1423.06616	1891.93933	-146.86664	1103.65625	1730.92761	-117.85310	902.71704	1880.74512	295.94684	947.75287	1876.64294	10.22869	939.33820	2104.77173	150.65910	947.65051	1799.08459	247.02382	593.46283	1853.82520	300.16568	470.79071	1855.82959	221.64212	238.95187	1904.86487	293.36765	67.54290	1976.36804	237.56314	45.44941	1766.77075	273.98822	48.46468	1834.52136	18.50318	605.46771	1943.26941	-39.02917	453.62344	2024.33496	33.52382	333.80042	2283.97778	-6.70863	233.27763	2315.79590	67.25108	269.56192	2251.79688	-25.39914	98.06438	1720.77515	253.14070	47.96406	1761.02881	237.01283	53.94921	1860.09058	204.18822	61.51665	1936.44336	206.04091	47.45054	1945.62659	280.23004	46.69030	1868.15283	303.39691	40.55707	1802.91846	317.10211	41.34328	2233.79346	-15.74449	54.64042	2240.06470	7.22975	83.88984	2253.42773	67.08290	162.78319	2291.72119	86.33433	231.68602	2315.85205	22.81631	251.55043	2300.97119	-23.24047	186.76761	2279.53662	-45.93463	133.06601																																																	1101.70557	345.21228	427.33099	1350.20154	250.77957	511.97757	1201.33069	117.38079	1477.14905	2177.51099	-30.24261	70.72013	
320	2.658	1896.24438	185.75549	1726.67590	1774.52002	182.85406	1656.38623	1995.89685	178.91649	1645.48340	1932.03235	372.99307	1411.14172	2054.47827	92.43906	1281.72021	2039.10193	459.37418	1104.68579	2008.71252	471.75983	842.80835	1888.15686	-34.12002	1424.43896	1887.07507	-145.95993	1105.13879	1728.48535	-119.78629	901.51886	1872.90979	298.10736	948.54535	1867.33801	11.75366	941.27063	2095.97461	151.38876	948.98999	1796.12598	248.53391	592.19049	1851.83606	301.52393	470.41406	1854.31897	223.13834	238.95490	1905.23486	293.74426	67.40746	1976.65356	237.68689	45.50294	1766.81262	274.21661	48.42624	1818.51257	19.24547	610.41071	1923.87891	-38.20839	456.30658	2004.73328	36.15805	336.43347	2263.86353	-2.79895	235.80067	2296.74951	70.97099	270.70959	2228.88818	-23.40856	100.31893	1720.98669	253.54214	48.18771	1761.10645	237.33336	54.14032	1860.17761	204.54884	61.92167	1936.53552	206.43134	47.82233	1945.85632	280.61417	46.54715	1868.22839	303.49857	40.32790	1802.91052	317.31860	41.11603	2209.67676	-12.93866	57.07585	2216.91699	10.75794	86.48360	2231.55762	70.70186	165.15689	2272.33447	91.28707	233.94101	2295.79639	26.74900	252.76947	2279.05127	-19.66200	188.46120	2256.28809	-42.39964	135.22461																																																	1192.01257	118.82633	1478.58826	2156.14990	-26.83901	72.46269	2211.47144	-31.82405	189.40503	2565.00757	153.23360	1363.13953	
321	2.667	1887.91174	186.63341	1728.25269	1766.24268	184.29462	1658.21924	1987.37231	180.24721	1647.21863	1922.54333	374.19220	1412.55469	2046.02246	94.73274	1283.23047	2026.52063	462.07336	1105.01233	1991.02075	473.55728	843.75378	1880.30554	-33.14593	1425.97058	1882.55237	-145.83449	1106.89172	1727.33521	-121.44332	901.02515	1863.74207	299.45010	949.70862	1858.45740	13.55662	943.02722	2087.24194	152.15959	950.32263	1791.06519	250.13107	591.01752	1850.25305	302.54041	470.16495	1853.38708	223.89351	238.86728	1906.10718	295.02557	68.39359	1976.79175	237.79617	45.55068	1766.86902	274.39923	48.38035	1803.97119	21.40621	615.06439	1904.75134	-37.62434	459.42575	1984.53857	37.73469	338.71103	2242.75562	0.47946	236.52061	2276.98364	74.46028	270.47705	2203.62280	-18.64922	101.68542	1721.16833	253.71581	48.26565	1761.22571	237.73763	54.39760	1860.18286	204.95760	62.15050	1936.39001	206.63608	48.06987	1946.00745	280.96924	46.38426	1868.59375	303.77280	39.82309	1802.90527	317.51013	40.95901	2182.75513	-8.43518	58.71246	2190.42480	14.41215	88.77155	2209.31567	74.81201	167.43036	2252.19019	94.60410	234.93510	2275.83008	29.46148	252.93449	2256.76636	-16.39472	188.76390	2232.54492	-38.82562	136.24498																																																	10211.73145	-1915.13196	651.45081	1181.91638	120.04550	1479.78491	2456.29028	-95.95734	-22.66001	
322	2.675	1879.20349	187.85849	1730.20020	1757.89490	185.61806	1659.79980	1979.11145	181.63518	1649.00720	1913.60413	375.40625	1413.78674	2037.57056	96.90218	1284.68372	2013.33325	464.96997	1105.57788	1972.52258	475.24286	844.65295	1873.00684	-31.94405	1427.62805	1877.75256	-144.85648	1108.72583	1725.19360	-123.61069	900.28296	1855.87280	301.44009	950.67609	1849.33740	15.10877	944.54932	2078.66211	153.01492	952.28931	1787.46448	251.36137	590.14648	1848.25037	303.63083	470.11105	1852.99854	224.30428	238.72865	1906.42493	295.42722	68.44572	1976.90540	237.92000	45.62715	1767.00659	274.58563	48.33680	1787.80322	23.07510	619.93463	1885.34167	-36.51296	461.91235	1963.27710	39.21349	341.03134	2221.20435	3.89740	236.94859	2256.48511	76.91712	269.30795	2177.55273	-14.85010	102.54089	1721.30676	254.00664	48.32587	1761.37085	238.04529	54.72513	1860.12231	205.39444	62.42673	1936.05579	206.75171	48.11355	1946.24402	281.17816	46.37659	1868.57117	303.97778	39.65312	1802.87830	317.68723	40.83403	2155.56689	-4.03199	59.86087	2165.02295	17.95057	90.05770	2185.22046	78.24435	168.01323	2230.09692	97.16105	233.79851	2254.44580	32.97248	251.34346	2233.51514	-12.16076	187.72414	2206.69775	-34.13718	135.69559																																																	1173.98047	120.34995	1481.15356	1036.54309	355.30835	433.04709	2433.63867	-93.18024	-22.69935	
